Coordinates
version=1
nRows=13
nColumns=38
inDegrees=no

Units are S.I. units (second, meters, Newtons, ...)
If the header above contains a line with 'inDegrees', this indicates whether rotational values are in degrees (yes) or radians (no).

endheader
time	pelvis_tilt	pelvis_list	pelvis_rotation	pelvis_tx	pelvis_ty	pelvis_tz	hip_flexion_r	hip_adduction_r	hip_rotation_r	knee_angle_r	ankle_angle_r	subtalar_angle_r	mtp_angle_r	hip_flexion_l	hip_adduction_l	hip_rotation_l	knee_angle_l	ankle_angle_l	subtalar_angle_l	mtp_angle_l	lumbar_extension	lumbar_bending	lumbar_rotation	arm_flex_r	arm_add_r	arm_rot_r	elbow_flex_r	pro_sup_r	wrist_flex_r	wrist_dev_r	arm_flex_l	arm_add_l	arm_rot_l	elbow_flex_l	pro_sup_l	wrist_flex_l	wrist_dev_l
0.51	2.92838	1.31829	-1.2253	0.524431	0.181589	0.962326	0.158657	-0.148773	-0.216282	1.36637	-0.114699	0	0	-0.249298	-0.0741758	-0.371851	0.295229	-0.198681	0	0	-0.382953	0.0588458	-0.248719	0.19458	-0.58534	1.28132	0.74756	0.342326	0	0	-0.18354	-0.46676	0.00397557	1.03234	1.52799	0	0
0.52	2.9174	1.31589	-1.21025	0.523494	0.190927	0.962608	0.172514	-0.146294	-0.221275	1.3445	-0.105713	0	0	-0.264999	-0.0784435	-0.368282	0.287767	-0.19514	0	0	-0.385347	0.0640609	-0.252336	0.198495	-0.58726	1.28367	0.74881	0.342568	0	0	-0.173479	-0.467662	-0.00336335	1.04604	1.52652	0	0
0.53	2.9083	1.31447	-1.19823	0.522813	0.200317	0.962621	0.187161	-0.143754	-0.224935	1.31492	-0.0984579	0	0	-0.279966	-0.082	-0.365171	0.28032	-0.191235	0	0	-0.387142	0.0677053	-0.255086	0.201959	-0.588778	1.28558	0.75018	0.342677	0	0	-0.16438	-0.468325	-0.0117547	1.0605	1.52623	0	0
0.54	2.90149	1.3138	-1.18927	0.522328	0.209731	0.962375	0.201638	-0.141354	-0.227691	1.27965	-0.0944397	0	0	-0.294339	-0.0847589	-0.362419	0.273323	-0.186697	0	0	-0.388489	0.0699336	-0.25748	0.205225	-0.590024	1.28741	0.751869	0.342975	0	0	-0.156199	-0.468567	-0.0212701	1.07544	1.52689	0	0
0.55	2.89655	1.31412	-1.18308	0.522076	0.219221	0.961905	0.21529	-0.139048	-0.229439	1.24123	-0.0916886	0	0	-0.308095	-0.0865631	-0.360093	0.266528	-0.182131	0	0	-0.388913	0.0707348	-0.258656	0.207709	-0.590647	1.28903	0.753004	0.34355	0	0	-0.147665	-0.468826	-0.0295612	1.08959	1.52664	0	0
0.56	2.89357	1.31531	-1.1794	0.521956	0.228767	0.961242	0.226878	-0.136931	-0.231333	1.20056	-0.0857573	0	0	-0.321378	-0.087391	-0.358421	0.259907	-0.17734	0	0	-0.388688	0.0703175	-0.259119	0.209397	-0.590738	1.28969	0.753569	0.343863	0	0	-0.138848	-0.469498	-0.0363241	1.10267	1.52838	0	0
0.57	2.89289	1.31818	-1.17824	0.521901	0.238384	0.960304	0.238028	-0.13604	-0.232816	1.15497	-0.0803757	0	0	-0.333053	-0.0870112	-0.35762	0.254153	-0.172228	0	0	-0.387016	0.0684794	-0.259493	0.209951	-0.590544	1.28894	0.753999	0.344054	0	0	-0.130046	-0.47026	-0.0420977	1.11442	1.53185	0	0
0.58	2.89277	1.32131	-1.17816	0.521972	0.248093	0.959267	0.246607	-0.134955	-0.234375	1.10601	-0.0744569	0	0	-0.344662	-0.0862132	-0.356211	0.248397	-0.166934	0	0	-0.385064	0.0662903	-0.259187	0.209756	-0.590086	1.28723	0.754166	0.344411	0	0	-0.120762	-0.470252	-0.0472853	1.1247	1.53481	0	0
0.59	2.89344	1.32428	-1.17905	0.522063	0.257855	0.958151	0.25218	-0.133708	-0.236833	1.05437	-0.0674089	0	0	-0.356376	-0.0853086	-0.354867	0.242879	-0.161445	0	0	-0.383494	0.0640384	-0.258482	0.209039	-0.589598	1.28447	0.754377	0.345444	0	0	-0.111367	-0.469597	-0.0521532	1.13403	1.53842	0	0
0.6	2.89446	1.32828	-1.18041	0.522205	0.267716	0.956833	0.256669	-0.132857	-0.239992	0.999002	-0.0614721	0	0	-0.36664	-0.0841986	-0.354206	0.238376	-0.156365	0	0	-0.380787	0.06143	-0.257544	0.207806	-0.589265	1.28155	0.754917	0.347072	0	0	-0.101728	-0.469123	-0.0551367	1.1422	1.5395	0	0
0.61	2.89538	1.33318	-1.18179	0.52245	0.27768	0.955352	0.260027	-0.132027	-0.24377	0.939785	-0.0568627	0	0	-0.375593	-0.0830926	-0.354208	0.23483	-0.151504	0	0	-0.377086	0.0583689	-0.256219	0.206187	-0.588528	1.27886	0.754954	0.348651	0	0	-0.0923117	-0.469129	-0.0562082	1.14933	1.54059	0	0
0.62	2.89522	1.33838	-1.18198	0.522774	0.287703	0.953787	0.261221	-0.130602	-0.249152	0.876868	-0.0528403	0	0	-0.383851	-0.0823819	-0.354075	0.231888	-0.146179	0	0	-0.373059	0.0553621	-0.254728	0.203977	-0.587062	1.27503	0.754064	0.350656	0	0	-0.0834674	-0.468994	-0.0566178	1.15579	1.54456	0	0
0.63	2.89209	1.34365	-1.17925	0.523186	0.297832	0.952171	0.260208	-0.127558	-0.25516	0.810548	-0.0484112	0	0	-0.391671	-0.0825123	-0.354133	0.229503	-0.141072	0	0	-0.368601	0.0529462	-0.253225	0.201491	-0.585119	1.27066	0.752549	0.352791	0	0	-0.0752341	-0.468496	-0.0569134	1.16154	1.54772	0	0
